<svg viewBox="0 0 12 12" width="168px" height="168px" xmlns="http://www.w3.org/2000/svg"><path fill-rule="evenodd" d="M 3,0 8,0 8,1 11,1 11,4 10,4 10,5 8,5 8,6 10,6 10,9 7,9 7,11 4,11 4,9 1,9 1,6 3,6 3,5 1,5 1,4 0,4 0,1 3,1z" fill="#13C9BA"/><path fill-rule="evenodd" d="M 4,1 5,1 5,2 4,2z" fill="#ffffff"/><path fill-rule="evenodd" d="M 6,1 7,1 7,2 6,2z" fill="#ffffff"/><path fill-rule="evenodd" d="M 1,2 2,2 2,3 1,3z" fill="#ffffff"/><path fill-rule="evenodd" d="M 3,2 4,2 4,4 2,4 2,3 3,3z" fill="#ffffff"/><path fill-rule="evenodd" d="M 5,2 6,2 6,4 5,4z" fill="#ffffff"/><path fill-rule="evenodd" d="M 7,2 8,2 8,3 9,3 9,4 7,4z" fill="#ffffff"/><path fill-rule="evenodd" d="M 9,2 10,2 10,3 9,3z" fill="#ffffff"/><path fill-rule="evenodd" d="M 4,6 5,6 5,7 4,7z" fill="#ffffff"/><path fill-rule="evenodd" d="M 6,6 7,6 7,7 6,7z" fill="#ffffff"/><path fill-rule="evenodd" d="M 2,7 4,7 4,8 2,8z" fill="#ffffff"/><path fill-rule="evenodd" d="M 5,7 6,7 6,8 5,8z" fill="#ffffff"/><path fill-rule="evenodd" d="M 7,7 9,7 9,8 7,8z" fill="#ffffff"/><path fill-rule="evenodd" d="M 5,9 6,9 6,10 5,10z" fill="#ffffff"/></svg>